<svg width="121" height="121" viewBox="0 0 121 121" fill="none" xmlns="http://www.w3.org/2000/svg">
<circle cx="60.1585" cy="60.1585" r="57.5785" fill="white" stroke="#32ADE6" stroke-width="5.16"/>
<g filter="url(#filter0_d_562_999)">
<circle cx="60.1553" cy="60.3935" r="43.2422" fill="url(#paint0_radial_562_999)"/>
<circle cx="60.1553" cy="60.3935" r="41.7422" stroke="#222222" stroke-width="3"/>
</g>
<path d="M38.458 65.8009C45.6604 59.0915 55.3214 54.9868 65.9411 54.9868C76.5608 54.9868 86.2218 59.0915 93.4242 65.8009H38.458Z" fill="url(#paint1_linear_562_999)"/>
<path d="M98.6726 72.5861C93.5312 88.9448 78.2476 100.811 60.1921 100.811C42.1367 100.811 26.8538 88.9447 21.7126 72.5861H98.6726Z" fill="url(#paint2_radial_562_999)"/>
<path d="M60.1868 28.4838C63.6991 28.4838 66.8425 28.9923 69.0764 29.7885C70.1968 30.1879 71.0428 30.6431 71.592 31.1059C72.1455 31.5723 72.3059 31.9628 72.3059 32.2495C72.3058 32.536 72.1453 32.9258 71.592 33.392C71.0427 33.8549 70.197 34.311 69.0764 34.7104C66.8425 35.5066 63.6991 36.0151 60.1868 36.0151C56.6746 36.015 53.5319 35.5065 51.2981 34.7104C50.1775 34.311 49.3318 33.8549 48.7825 33.392C48.2291 32.9258 48.0687 32.5361 48.0686 32.2495C48.0686 31.9628 48.229 31.5723 48.7825 31.1059C49.3318 30.6431 50.1777 30.1878 51.2981 29.7885C53.5319 28.9924 56.6746 28.4839 60.1868 28.4838Z" stroke="#2E2E2E" stroke-width="1.72"/>
<circle cx="60.1821" cy="38.7385" r="6.58231" fill="#EBCDC1" stroke="#222222" stroke-width="1.74115"/>
<path d="M70.541 47.2804C73.0791 44.2857 79.9967 38.1751 87.3625 37.6909C94.7282 37.2066 104.672 35.7053 108.612 35.907C108.612 35.907 110.396 42.2786 104.63 44.413C102.204 45.3108 96.1062 45.8145 90.9956 46.0882L104.28 45.5918C104.28 45.5918 104.98 51.3902 100.074 53.2061C97.907 54.0082 82.966 54.1937 82.966 54.1937H98.3219C98.3219 54.1937 98.6724 59.9921 93.575 61.5529C91.7724 62.1049 78.1234 62.5088 78.1234 62.5088H91.9502C91.9502 62.5088 93.575 68.0842 84.7819 70.0594C83.2333 70.4073 73.2809 70.0594 73.2809 70.0594L70.541 47.2804Z" fill="white"/>
<path d="M70.541 47.2804C73.0791 44.2857 79.9967 38.1751 87.3625 37.6909C94.7282 37.2066 104.672 35.7053 108.612 35.907C108.612 35.907 110.396 42.2786 104.63 44.413C102.204 45.3108 96.1062 45.8145 90.9956 46.0882L104.28 45.5918C104.28 45.5918 104.98 51.3902 100.074 53.2061C97.907 54.0082 82.966 54.1937 82.966 54.1937H98.3219C98.3219 54.1937 98.6724 59.9921 93.575 61.5529C91.7724 62.1049 78.1234 62.5088 78.1234 62.5088H91.9502C91.9502 62.5088 93.575 68.0842 84.7819 70.0594C83.2333 70.4073 73.2809 70.0594 73.2809 70.0594L70.541 47.2804Z" fill="white"/>
<path d="M70.541 47.2804C73.0791 44.2857 79.9967 38.1751 87.3625 37.6909C94.7282 37.2066 104.672 35.7053 108.612 35.907C108.612 35.907 110.396 42.2786 104.63 44.413C102.204 45.3108 96.1062 45.8145 90.9956 46.0882L104.28 45.5918C104.28 45.5918 104.98 51.3902 100.074 53.2061C97.907 54.0082 82.966 54.1937 82.966 54.1937H98.3219C98.3219 54.1937 98.6724 59.9921 93.575 61.5529C91.7724 62.1049 78.1234 62.5088 78.1234 62.5088H91.9502C91.9502 62.5088 93.575 68.0842 84.7819 70.0594C83.2333 70.4073 73.2809 70.0594 73.2809 70.0594L70.541 47.2804Z" stroke="black" stroke-width="1.98988"/>
<path d="M50.4456 47.2804C47.9075 44.2857 40.9899 38.1751 33.6241 37.6909C26.2583 37.2066 16.3141 35.7053 12.3742 35.907C12.3742 35.907 10.5902 42.2786 16.3566 44.413C18.7822 45.3108 24.8804 45.8145 29.991 46.0882L16.7071 45.5918C16.7071 45.5918 16.0062 51.3902 20.9124 53.2061C23.0796 54.0082 38.0206 54.1937 38.0206 54.1937H22.6647C22.6647 54.1937 22.3142 59.9921 27.4116 61.5529C29.2141 62.1049 42.8632 62.5088 42.8632 62.5088H29.0364C29.0364 62.5088 27.4116 68.0842 36.2047 70.0594C37.7533 70.4073 47.7057 70.0594 47.7057 70.0594L50.4456 47.2804Z" fill="white"/>
<path d="M50.4456 47.2804C47.9075 44.2857 40.9899 38.1751 33.6241 37.6909C26.2583 37.2066 16.3141 35.7053 12.3742 35.907C12.3742 35.907 10.5902 42.2786 16.3566 44.413C18.7822 45.3108 24.8804 45.8145 29.991 46.0882L16.7071 45.5918C16.7071 45.5918 16.0062 51.3902 20.9124 53.2061C23.0796 54.0082 38.0206 54.1937 38.0206 54.1937H22.6647C22.6647 54.1937 22.3142 59.9921 27.4116 61.5529C29.2141 62.1049 42.8632 62.5088 42.8632 62.5088H29.0364C29.0364 62.5088 27.4116 68.0842 36.2047 70.0594C37.7533 70.4073 47.7057 70.0594 47.7057 70.0594L50.4456 47.2804Z" fill="white"/>
<path d="M50.4456 47.2804C47.9075 44.2857 40.9899 38.1751 33.6241 37.6909C26.2583 37.2066 16.3141 35.7053 12.3742 35.907C12.3742 35.907 10.5902 42.2786 16.3566 44.413C18.7822 45.3108 24.8804 45.8145 29.991 46.0882L16.7071 45.5918C16.7071 45.5918 16.0062 51.3902 20.9124 53.2061C23.0796 54.0082 38.0206 54.1937 38.0206 54.1937H22.6647C22.6647 54.1937 22.3142 59.9921 27.4116 61.5529C29.2141 62.1049 42.8632 62.5088 42.8632 62.5088H29.0364C29.0364 62.5088 27.4116 68.0842 36.2047 70.0594C37.7533 70.4073 47.7057 70.0594 47.7057 70.0594L50.4456 47.2804Z" stroke="black" stroke-width="1.98988"/>
<path d="M53.116 47.3959H60.2255H67.3152C69.7866 47.3959 71.6772 49.4501 72.4412 51.1969C73.1837 52.8947 73.2741 55.4794 73.2741 55.4794C73.2741 55.4794 73.2112 62.465 73.2341 67.5971C73.2451 70.0827 73.2605 72.3754 73.2741 74.0212C73.3029 77.5056 68.545 79.4259 67.5014 74.0212V94.1944C67.5014 97.4763 61.5777 98.7262 60.1888 94.1944C58.7998 98.7262 52.9298 97.4763 52.9298 94.1944V74.0212C51.8862 79.4259 47.1283 77.5056 47.1571 74.0212C47.1707 72.3754 47.1861 70.0827 47.1971 67.5971C47.22 62.465 47.1571 55.4794 47.1571 55.4794C47.1571 55.4794 47.2475 52.8947 47.99 51.1969C48.754 49.4501 50.6446 47.3959 53.116 47.3959Z" fill="#EBCDC1"/>
<path d="M60.1888 94.1944C58.7998 98.7262 52.9298 97.4763 52.9298 94.1944V74.0212M60.1888 94.1944C61.5777 98.7262 67.5014 97.4763 67.5014 94.1944V74.0212M60.1888 94.1944V73.4113M52.9298 74.0212C51.8862 79.4259 47.1283 77.5056 47.1571 74.0212C47.1707 72.3754 47.1861 70.0827 47.1971 67.5971C47.22 62.465 47.1571 55.4794 47.1571 55.4794C47.1571 55.4794 47.2475 52.8947 47.99 51.1969C48.754 49.4501 50.6446 47.3959 53.116 47.3959H60.2255H67.3152C69.7866 47.3959 71.6772 49.4501 72.4412 51.1969C73.1837 52.8947 73.2741 55.4794 73.2741 55.4794C73.2741 55.4794 73.2112 62.465 73.2341 67.5971C73.2451 70.0827 73.2605 72.3754 73.2741 74.0212C73.3029 77.5056 68.545 79.4259 67.5014 74.0212M52.9298 74.0212V55.0211M67.5014 74.0212V55.0211" stroke="#222222" stroke-width="1.74115"/>
<path d="M44.0314 86.2751C44.0959 88.0703 45.5363 89.5107 47.3314 89.5751C45.5363 89.6395 44.0959 91.0799 44.0314 92.8751C43.967 91.0799 42.5266 89.6395 40.7314 89.5751C42.5266 89.5107 43.967 88.0703 44.0314 86.2751Z" fill="white"/>
<path d="M75.2354 86.2751C75.171 88.0703 73.7306 89.5107 71.9354 89.5751C73.7306 89.6395 75.171 91.0799 75.2354 92.8751C75.2998 91.0799 76.7402 89.6395 78.5354 89.5751C76.7402 89.5107 75.2998 88.0703 75.2354 86.2751Z" fill="white"/>
<path d="M32.7133 74.7437C32.7778 76.5388 34.2182 77.9792 36.0133 78.0437C34.2182 78.1081 32.7778 79.5485 32.7133 81.3437C32.6489 79.5485 31.2085 78.1081 29.4133 78.0437C31.2085 77.9792 32.6489 76.5388 32.7133 74.7437Z" fill="white"/>
<path d="M87.8016 74.7437C87.7371 76.5388 86.2967 77.9792 84.5016 78.0437C86.2967 78.1081 87.7371 79.5485 87.8016 81.3437C87.866 79.5485 89.3064 78.1081 91.1016 78.0437C89.3064 77.9792 87.866 76.5388 87.8016 74.7437Z" fill="white"/>
<defs>
<filter id="filter0_d_562_999" x="8.51309" y="10.7513" width="103.284" height="103.284" filterUnits="userSpaceOnUse" color-interpolation-filters="sRGB">
<feFlood flood-opacity="0" result="BackgroundImageFix"/>
<feColorMatrix in="SourceAlpha" type="matrix" values="0 0 0 0 0 0 0 0 0 0 0 0 0 0 0 0 0 0 127 0" result="hardAlpha"/>
<feMorphology radius="0.4" operator="dilate" in="SourceAlpha" result="effect1_dropShadow_562_999"/>
<feOffset dy="2"/>
<feGaussianBlur stdDeviation="4"/>
<feComposite in2="hardAlpha" operator="out"/>
<feColorMatrix type="matrix" values="0 0 0 0 0 0 0 0 0 0 0 0 0 0 0 0 0 0 0.11 0"/>
<feBlend mode="normal" in2="BackgroundImageFix" result="effect1_dropShadow_562_999"/>
<feBlend mode="normal" in="SourceGraphic" in2="effect1_dropShadow_562_999" result="shape"/>
</filter>
<radialGradient id="paint0_radial_562_999" cx="0" cy="0" r="1" gradientUnits="userSpaceOnUse" gradientTransform="translate(60.1553 60.3935) rotate(90) scale(43.2422)">
<stop offset="0.828896" stop-color="#F1F1F1"/>
<stop offset="1" stop-color="#6A6A6A"/>
</radialGradient>
<linearGradient id="paint1_linear_562_999" x1="65.9462" y1="85.6998" x2="65.9462" y2="52.3503" gradientUnits="userSpaceOnUse">
<stop stop-color="#1893D6"/>
<stop offset="1" stop-color="#1670AC"/>
</linearGradient>
<radialGradient id="paint2_radial_562_999" cx="0" cy="0" r="1" gradientTransform="matrix(0 30 -77.9937 0.000269954 60.1524 72.3176)" gradientUnits="userSpaceOnUse">
<stop stop-color="#32ADE6"/>
<stop offset="1" stop-color="#0F2C5C"/>
</radialGradient>
</defs>
</svg>
